<mxfile host="www.draw.io" modified="2023-04-29T12:01:47.658Z" agent="Mozilla/5.0 (X11; Ubuntu; Linux x86_64; rv:109.0) Gecko/20100101 Firefox/112.0" etag="aU_rVn2XKo8itYXtLT6s" version="21.2.3" type="device">
  <diagram name="Page-1" id="RrnqFVKBbIYWGTD-R49G">
    <mxGraphModel dx="1434" dy="795" grid="1" gridSize="10" guides="1" tooltips="1" connect="1" arrows="1" fold="1" page="1" pageScale="1" pageWidth="850" pageHeight="1100" math="0" shadow="0">
      <root>
        <mxCell id="0" />
        <mxCell id="1" parent="0" />
        <mxCell id="3dHi3XTr3SVE_8ldmcup-6" style="edgeStyle=orthogonalEdgeStyle;rounded=0;orthogonalLoop=1;jettySize=auto;html=1;exitX=0.5;exitY=1;exitDx=0;exitDy=0;exitPerimeter=0;entryX=0.491;entryY=0.24;entryDx=0;entryDy=0;entryPerimeter=0;" edge="1" parent="1" source="3dHi3XTr3SVE_8ldmcup-1" target="3dHi3XTr3SVE_8ldmcup-2">
          <mxGeometry relative="1" as="geometry" />
        </mxCell>
        <mxCell id="3dHi3XTr3SVE_8ldmcup-9" style="edgeStyle=orthogonalEdgeStyle;rounded=0;orthogonalLoop=1;jettySize=auto;html=1;exitX=0;exitY=0;exitDx=230;exitDy=32;exitPerimeter=0;entryX=0;entryY=0;entryDx=0;entryDy=0;entryPerimeter=0;" edge="1" parent="1" source="3dHi3XTr3SVE_8ldmcup-1" target="3dHi3XTr3SVE_8ldmcup-4">
          <mxGeometry relative="1" as="geometry" />
        </mxCell>
        <mxCell id="3dHi3XTr3SVE_8ldmcup-1" value="&lt;div&gt;diplomaProjectManager.controller&lt;/div&gt;" style="shape=folder;fontStyle=1;spacingTop=10;tabWidth=40;tabHeight=14;tabPosition=left;html=1;whiteSpace=wrap;" vertex="1" parent="1">
          <mxGeometry x="230" y="280" width="230" height="50" as="geometry" />
        </mxCell>
        <mxCell id="3dHi3XTr3SVE_8ldmcup-5" style="edgeStyle=orthogonalEdgeStyle;rounded=0;orthogonalLoop=1;jettySize=auto;html=1;exitX=0.5;exitY=1;exitDx=0;exitDy=0;exitPerimeter=0;entryX=0.504;entryY=0.26;entryDx=0;entryDy=0;entryPerimeter=0;" edge="1" parent="1" source="3dHi3XTr3SVE_8ldmcup-2" target="3dHi3XTr3SVE_8ldmcup-3">
          <mxGeometry relative="1" as="geometry" />
        </mxCell>
        <mxCell id="3dHi3XTr3SVE_8ldmcup-8" style="edgeStyle=orthogonalEdgeStyle;rounded=0;orthogonalLoop=1;jettySize=auto;html=1;exitX=0;exitY=0;exitDx=230;exitDy=32;exitPerimeter=0;entryX=0;entryY=0;entryDx=0;entryDy=32;entryPerimeter=0;" edge="1" parent="1" source="3dHi3XTr3SVE_8ldmcup-2" target="3dHi3XTr3SVE_8ldmcup-4">
          <mxGeometry relative="1" as="geometry" />
        </mxCell>
        <mxCell id="3dHi3XTr3SVE_8ldmcup-2" value="&lt;div&gt;diplomaProjectManager.service&lt;/div&gt;" style="shape=folder;fontStyle=1;spacingTop=10;tabWidth=40;tabHeight=14;tabPosition=left;html=1;whiteSpace=wrap;" vertex="1" parent="1">
          <mxGeometry x="230" y="350" width="230" height="50" as="geometry" />
        </mxCell>
        <mxCell id="3dHi3XTr3SVE_8ldmcup-7" style="edgeStyle=orthogonalEdgeStyle;rounded=0;orthogonalLoop=1;jettySize=auto;html=1;exitX=0;exitY=0;exitDx=230;exitDy=32;exitPerimeter=0;entryX=0;entryY=0;entryDx=0;entryDy=50;entryPerimeter=0;" edge="1" parent="1" source="3dHi3XTr3SVE_8ldmcup-3" target="3dHi3XTr3SVE_8ldmcup-4">
          <mxGeometry relative="1" as="geometry" />
        </mxCell>
        <mxCell id="3dHi3XTr3SVE_8ldmcup-3" value="&lt;div&gt;diplomaProjectManager.dao&lt;/div&gt;" style="shape=folder;fontStyle=1;spacingTop=10;tabWidth=40;tabHeight=14;tabPosition=left;html=1;whiteSpace=wrap;" vertex="1" parent="1">
          <mxGeometry x="230" y="420" width="230" height="50" as="geometry" />
        </mxCell>
        <mxCell id="3dHi3XTr3SVE_8ldmcup-4" value="&lt;div&gt;diplomaProjectManager.model&lt;/div&gt;" style="shape=folder;fontStyle=1;spacingTop=10;tabWidth=40;tabHeight=14;tabPosition=left;html=1;whiteSpace=wrap;" vertex="1" parent="1">
          <mxGeometry x="510" y="350" width="230" height="50" as="geometry" />
        </mxCell>
        <mxCell id="3dHi3XTr3SVE_8ldmcup-11" style="edgeStyle=orthogonalEdgeStyle;rounded=0;orthogonalLoop=1;jettySize=auto;html=1;exitX=0.5;exitY=1;exitDx=0;exitDy=0;exitPerimeter=0;entryX=0.491;entryY=0.24;entryDx=0;entryDy=0;entryPerimeter=0;" edge="1" parent="1" source="3dHi3XTr3SVE_8ldmcup-10" target="3dHi3XTr3SVE_8ldmcup-1">
          <mxGeometry relative="1" as="geometry" />
        </mxCell>
        <mxCell id="3dHi3XTr3SVE_8ldmcup-13" style="edgeStyle=orthogonalEdgeStyle;rounded=0;orthogonalLoop=1;jettySize=auto;html=1;exitX=0;exitY=0;exitDx=230;exitDy=32;exitPerimeter=0;entryX=0;entryY=0;entryDx=40;entryDy=0;entryPerimeter=0;" edge="1" parent="1" source="3dHi3XTr3SVE_8ldmcup-10" target="3dHi3XTr3SVE_8ldmcup-4">
          <mxGeometry relative="1" as="geometry" />
        </mxCell>
        <mxCell id="3dHi3XTr3SVE_8ldmcup-10" value="&lt;div&gt;diplomaProjectManager.templates&lt;/div&gt;" style="shape=folder;fontStyle=1;spacingTop=10;tabWidth=40;tabHeight=14;tabPosition=left;html=1;whiteSpace=wrap;" vertex="1" parent="1">
          <mxGeometry x="230" y="210" width="230" height="50" as="geometry" />
        </mxCell>
      </root>
    </mxGraphModel>
  </diagram>
</mxfile>
